2.2Hz3min_grf.mot
version=1
nRows=17
nColumns 19
inDegrees=yes
endheader
time	1_ground_force_vx	1_ground_force_vy	1_ground_force_vz	1_ground_force_px	1_ground_force_py	1_ground_force_pz	1_ground_torque_x	1_ground_torque_y	1_ground_torque_z	2_ground_force_vx	2_ground_force_vy	2_ground_force_vz	2_ground_force_px	2_ground_force_py	2_ground_force_pz	2_ground_torque_x	2_ground_torque_y	2_ground_torque_z
            0.005000	           15.225862	          842.640908	          -98.273495	           -0.298739	            0.006301	           -0.426226	            0.059975	            3.319172	           -0.387100	           10.327567	          812.653951	          117.446804	           -0.283399	            0.005578	           -0.730471	           -0.009469	           -0.745088	           -0.107682
            0.005500	           13.755961	          849.313434	          -98.929097	           -0.298491	            0.006301	           -0.426223	            0.057339	            3.540212	           -0.412368	            9.371439	          817.989782	          117.794746	           -0.283358	            0.005577	           -0.730271	           -0.009003	           -0.785840	           -0.113165
            0.006000	           12.104237	          854.361341	          -99.086782	           -0.298613	            0.006301	           -0.426236	            0.052000	            3.670376	           -0.425681	            8.132985	          823.691920	          118.378770	           -0.283203	            0.005578	           -0.730280	           -0.008208	           -0.831315	           -0.119474
            0.006500	           10.452414	          859.950014	          -99.242148	           -0.298454	            0.006301	           -0.426362	            0.046082	            3.791277	           -0.437531	            6.850505	          828.655987	          119.335611	           -0.283256	            0.005577	           -0.730153	           -0.008202	           -0.992083	           -0.142871
            0.007000	            7.929511	          864.637675	          -99.490936	           -0.298475	            0.006302	           -0.426545	            0.034223	            3.731713	           -0.429396	            5.661580	          833.621686	          119.963923	           -0.283265	            0.005576	           -0.730027	           -0.007809	           -1.149765	           -0.165459
            0.007500	            5.819894	          869.864684	          -99.417420	           -0.298389	            0.006303	           -0.426666	            0.024821	            3.709801	           -0.423996	            4.187445	          839.692097	          120.314712	           -0.282959	            0.005578	           -0.730038	           -0.006537	           -1.310919	           -0.187834
            0.008000	            3.984097	          875.634600	          -99.800848	           -0.298427	            0.006303	           -0.426741	            0.017985	            3.952865	           -0.450530	            2.667933	          845.393007	          120.992712	           -0.282946	            0.005577	           -0.729890	           -0.004257	           -1.348768	           -0.193036
            0.008500	            1.828229	          881.222905	          -99.863243	           -0.298178	            0.006303	           -0.426754	            0.008331	            4.015686	           -0.455072	            1.576490	          849.255630	          121.147761	           -0.283030	            0.005576	           -0.729654	           -0.002716	           -1.463030	           -0.208704
            0.009000	           -0.191084	          885.911721	         -100.388411	           -0.298137	            0.006304	           -0.426878	           -0.000914	            4.236594	           -0.480076	            0.477215	          855.327014	          121.639183	           -0.282948	            0.005576	           -0.729666	           -0.000846	           -1.516243	           -0.215630
            0.009500	           -2.257363	          891.143186	         -101.323845	           -0.298111	            0.006305	           -0.427106	           -0.011083	            4.375360	           -0.497483	           -1.187601	          862.317177	          122.087194	           -0.282800	            0.005577	           -0.729809	            0.002275	           -1.651727	           -0.233852
            0.010000	           -4.367146	          897.271554	         -101.246479	           -0.298096	            0.006304	           -0.426901	           -0.021760	            4.470727	           -0.504469	           -2.562138	          866.731390	          122.244333	           -0.282822	            0.005576	           -0.729534	            0.005361	           -1.813496	           -0.255777
            0.010500	           -6.660165	          901.417510	         -101.268864	           -0.298060	            0.006305	           -0.427166	           -0.032832	            4.443594	           -0.499211	           -4.641999	          871.878959	          122.592097	           -0.282710	            0.005576	           -0.729240	            0.010691	           -2.007963	           -0.282333
            0.011000	           -9.229432	          906.466419	         -101.699416	           -0.297869	            0.006305	           -0.427300	           -0.046472	            4.564200	           -0.512072	           -5.975687	          877.950714	          122.708194	           -0.282602	            0.005576	           -0.729359	            0.015383	           -2.260147	           -0.315893
            0.011500	          -11.569095	          911.875056	         -101.945553	           -0.297750	            0.006305	           -0.427293	           -0.059192	            4.665531	           -0.521596	           -7.587151	          883.100812	          122.821125	           -0.282598	            0.005576	           -0.729112	            0.020047	           -2.333382	           -0.324525
            0.012000	          -13.816924	          917.103340	         -102.146853	           -0.297839	            0.006306	           -0.427400	           -0.072737	            4.827920	           -0.537733	           -9.062719	          889.540462	          122.938596	           -0.282513	            0.005576	           -0.729041	            0.025055	           -2.459232	           -0.339877
            0.012500	          -16.157399	          921.972783	         -102.762155	           -0.297627	            0.006306	           -0.427513	           -0.087557	            4.996147	           -0.556866	          -10.671504	          893.953708	          123.095835	           -0.282541	            0.005575	           -0.728838	            0.030971	           -2.594456	           -0.357252
            0.013000	          -18.497792	          927.022327	         -103.330833	           -0.297647	            0.006306	           -0.427528	           -0.103141	            5.168924	           -0.576156	          -12.145181	          899.841712	          122.976686	           -0.282480	            0.005575	           -0.728724	            0.037601	           -2.785907	           -0.380735
